

<svg xmlns="http://www.w3.org/2000/svg" viewBox="0 0 485.726 485.726" fill="#fff">
<path d="M153.893 432.143c-36.3-15.4-61.8-38.4-66.7-29.3-1.9 3.9 1.8 12.1 10.4 23.4 4.8 5.1 10.7 11.1 18.1 17.2 3.9 2.8 8 5.6 12.4 8.6 2.2 1.4 4.5 3 6.9 4.4 2.5 1.2 5 2.5 7.6 3.8 18.4 9.8 38.6 15.9 59 20.6 10.3 1.6 20.7 3.8 31.2 4.1l7.9.5c2.6.2 5.3.4 7.9.2l15.8-.5c21-1.7 42.1-5.2 61.9-12.5 10.2-3 19.6-7.9 29.3-12.3 4.8-2.2 9.2-5.2 13.8-7.8 4.5-2.8 9.2-5.2 13.5-8.6l10.6-7.9 5.3-4 4.4-4 8.8-8 2.2-2 1.1-1 .5-.5.7-.6.1-.1.1-.1.3-.3 4.3-4.7c5.6-6.4 11.6-12.4 16.4-19.5 5-6.9 10.2-13.6 14.2-21.1 17.4-29.1 28.4-62 32.2-95.5 3.8-33.5.8-67.9-9.6-99.9l-4.3-11.9c-1.5-3.9-2.7-8-4.7-11.7l-5.4-11.4-2.7-5.7c-1-1.8-2.1-3.6-3.2-5.4l-6.5-10.8c-1.1-1.8-2.1-3.6-3.4-5.3l-3.9-5.2c-5.2-6.8-10.3-14.2-15.8-19.5-18.4-23.2-42-43.6-68.8-58.4-26.9-15.1-57-24.6-87.8-28s-62.5-.8-92.5 7.9l-22.2 7.6c-7.2 3.1-14.3 6.5-21.4 9.7-6.9 3.8-13.6 7.8-20.3 11.8-6.7 4.4-13.2 9.5-19.7 14.3l-2.4 1.8-2 1.8-4 3.6-8 7.2-2 1.8-1 .9-1 .9-.2.3-.6.8-3.9 4.3-7.9 8.7-3.9 4.4c-1.2 1.5-2.3 3.1-3.5 4.7l-7 9.5c-4.9 6.2-8.5 13.2-12.6 19.9-15.5 27.3-25.6 57.6-29.7 88.6s-2.3 62.8 5.3 93.1c1 3.8 1.7 7.7 3 11.3l3.8 11.1c1.3 3.7 2.4 7.4 4 11l4.9 10.7c1.7 3.5 3.2 7.2 5 10.6l5.9 10.2 5.9 10.1 7.1 9.9c6.9 10.4 20.2 19 25.4 21.3 10.4 4.1 4.5-8.1-5.9-25-16.3-28.7-28.4-61.9-33.4-97.5-.9-4.4-.8-9-1.3-13.5l-.6-6.8-.3-3.4v-3.4c0-4.5 0-9.1.1-13.7v-3.4l.3-3.4.6-6.9c.4-9.2 2.4-18.3 3.9-27.4.7-4.6 2.3-9 3.4-13.5 1.3-4.5 2.2-9 4-13.3 6.8-21.4 17.9-41.1 31.2-58.9 3.5-4.3 6.5-9.1 10.5-13l5.7-6.1 2.8-3 1.4-1.5.7-.8.4-.4.1-.1 13.1-11.5 3.6-2.9c1.1-1 2.2-1.6 3.3-2.4l6.6-4.6 6.5-4.6c2.2-1.5 4.8-2.8 7.1-4.1l7.2-4.1c2.4-1.4 4.8-2.8 7.3-3.8l15.1-6.7c5.2-1.8 10.5-3.5 15.7-5.3 21.1-6.2 43.1-9.3 65.1-9 22 .4 43.8 4.6 64.5 11.6l7.7 2.8 3.9 1.4 3.7 1.7 14.9 7 14.1 8.4c1.2.7 2.4 1.4 3.5 2.1l3.3 2.4 6.6 4.9 6.6 4.8 6.1 5.5 6.1 5.5 3.1 2.7.3.2.6.6 1.5 1.7 12.1 13.3c3.5 4.3 6.3 8.5 9.5 12.7 12.3 17.5 22.6 37.6 29.4 58.6 5.7 21.1 8 43 7.3 64.7-2 69.2-41.1 135.2-100 170.4l-11 6.6-11.6 5.4-5.8 2.8c-2 .8-4 1.5-6 2.2l-12.1 4.3c-16.5 4.6-33.3 8.5-50.5 9.1-8.6.9-17.2.3-25.8.1-4.3.1-8.5-.9-12.8-1.3-4.2-.6-8.6-.8-12.8-1.8-8.4-2-17-3.3-25.1-6.3-4.1-1.4-8.3-2.5-12.3-4l-11.8-5.2z"/><path d="M259.493 174.743c-4.9-1-9 .3-12.1 2.2-10.3 6.4-14.8 14.1-16 21.9-1.4 8.9-3.1 17.9-4.1 26.9h-.2c-14.9-1.7-29.9-2.2-44.7 1.9-4.2 1.2-7.7 5.8-7.4 14.8.3 8.3 3.3 14.4 7.6 15.3 7.8 1.7 15.6 3.6 23.5 3.4 6.9-.2 13.8-.9 20.7-1.7-.2 1.1-.3 2.2-.5 3.3-1.7 14.9-2.2 29.9 1.9 44.7 1.2 4.2 5.8 7.7 14.8 7.4 8.3-.3 14.4-3.3 15.3-7.6 1.7-7.8 3.6-15.6 3.4-23.5-.2-6.9-.9-13.9-1.7-20.8 17.2 3.3 34.7 0 52 1.8 1 .1 2.6-3.4 3.1-5.8 1-4.9-.3-9-2.2-12.1-6.4-10.3-14.1-14.8-21.9-16-9-1.4-17.9-3.1-26.9-4.1 2.4-16.2-.4-32.6 1.3-48.9 0-1.1-3.4-2.6-5.9-3.1z"/></svg>