<svg width="316" height="172" viewBox="0 0 316 172" fill="none" xmlns="http://www.w3.org/2000/svg">
<path d="M23.52 115H4.8V37.96H27.72L40.2 79.12L52.68 37.96H75.6V115H57V66.04L47.4 98.32H33L23.52 66.28V115ZM114.471 37.96H132.231C143.991 37.96 149.871 42.92 149.871 52.84V100.12C149.871 110.04 143.991 115 132.231 115H114.471C102.711 115 96.8306 110.04 96.8306 100.12V52.84C96.8306 42.92 102.711 37.96 114.471 37.96ZM128.871 97.36V55.6C128.871 53.84 127.871 52.96 125.871 52.96H120.831C118.831 52.96 117.831 53.84 117.831 55.6V97.36C117.831 99.12 118.831 100 120.831 100H125.871C127.871 100 128.871 99.12 128.871 97.36ZM192.066 87.64V115H171.066V37.96H206.706C218.466 37.96 224.346 42.92 224.346 52.84V72.76C224.346 80.36 220.906 85.04 214.026 86.8L228.186 115H205.626L193.386 87.64H192.066ZM200.346 52.96H192.066V73.36H200.346C202.346 73.36 203.346 72.48 203.346 70.72V55.6C203.346 53.84 202.346 52.96 200.346 52.96ZM279.866 37.96H299.066V115H281.066L263.906 74.56V115H244.706V37.96H262.706L279.866 79.12V37.96Z" fill="white"/>
<rect x="90" y="79" width="61" height="40" fill="#00A3FF"/>
<path d="M104.098 89.518H107.71V103H104.098V97.666H101.452V103H97.84V89.518H101.452V95.041H104.098V89.518ZM112.41 89.518H115.518C117.576 89.518 118.605 90.386 118.605 92.122V100.396C118.605 102.132 117.576 103 115.518 103H112.41C110.352 103 109.323 102.132 109.323 100.396V92.122C109.323 90.386 110.352 89.518 112.41 89.518ZM114.93 99.913V92.605C114.93 92.297 114.755 92.143 114.405 92.143H113.523C113.173 92.143 112.998 92.297 112.998 92.605V99.913C112.998 100.221 113.173 100.375 113.523 100.375H114.405C114.755 100.375 114.93 100.221 114.93 99.913ZM125.821 89.518H129.496V100.396C129.496 102.132 128.467 103 126.409 103H123.301C121.243 103 120.214 102.132 120.214 100.396V89.518H123.889V99.913C123.889 100.221 124.064 100.375 124.414 100.375H125.296C125.646 100.375 125.821 100.221 125.821 99.913V89.518ZM136.352 99.913V98.002C136.352 97.694 136.177 97.54 135.827 97.54H133.811C132.775 97.54 132.04 97.316 131.606 96.868C131.186 96.406 130.976 95.748 130.976 94.894V92.122C130.976 90.386 131.998 89.518 134.042 89.518H136.919C138.963 89.518 139.985 90.386 139.985 92.122V93.739H136.31V92.605C136.31 92.297 136.135 92.143 135.785 92.143H135.176C134.826 92.143 134.651 92.297 134.651 92.605V94.6C134.651 94.908 134.826 95.062 135.176 95.062H137.15C138.186 95.062 138.921 95.279 139.355 95.713C139.803 96.147 140.027 96.784 140.027 97.624V100.396C140.027 102.132 139.005 103 136.961 103H134.105C132.047 103 131.018 102.132 131.018 100.396V98.779H134.693V99.913C134.693 100.221 134.868 100.375 135.218 100.375H135.827C136.177 100.375 136.352 100.221 136.352 99.913ZM145.176 100.375H149.775V103H141.501V89.518H149.586V92.143H145.176V94.894H148.977V97.519H145.176V100.375Z" fill="white"/>
</svg>
